# xmcd
#
# Track frame offsets:
# 150
# 17521
# 37265
# 54840
# 72483
# 87440
# 103918
# 121041
# 136108
# 151934
#
# Disc length: 2221 seconds
#
#
# Revision: 0
# Processed by: cddbd v1.5PL3 Copyright (c) Steve Scherf et al.
# Submitted via: CDLP Version 5 
#
DISCID=7d08ab0a
DTITLE=白石譲 - 千と千尋の神隠し イメージアルバム
DYEAR=1900
DGENRE=Misc
TTITLE0=あの日の川へ
TTITLE1=夜が来る
TTITLE2=神々さま
TTITLE3=油屋
TTITLE4=不思議な国の住人
TTITLE5=さみしい さみしい
TTITLE6=ソリチュード
TTITLE7=海
TTITLE8=白い竜
TTITLE9=千尋のワルツ
EXTD=
EXTT0=
EXTT1=
EXTT2=
EXTT3=
EXTT4=
EXTT5=
EXTT6=
EXTT7=
EXTT8=
EXTT9=
PLAYORDER=
